<svg fill="#601ae0" version="1.0" xmlns="http://www.w3.org/2000/svg" width="100" height="100" xml:space="preserve"><circle cx="25" cy="68.333" r="3.333"/><circle cx="65" cy="13.333" r="3.333"/><circle cx="74.167" cy="87.5" r="2.5"/><circle cx="84.167" cy="19.167" r="2.5"/><circle cx="35.833" cy="75.833" r="2.5"/><path d="m87.61 76.667 2.39-5-5 2.389-5-2.389 2.39 5-2.39 5 5-2.39 5 2.39zM79.277 33.333l2.39-5-5 2.39-5-2.39 2.389 5-2.389 5 5-2.389 5 2.389z"/><path d="M87.363 45.215c-7.991-.746-15.693 1.549-21.214 7.073L53.532 68.509l-6.241-2.08-4.713 4.714 8.828 5.3c-7.301 4.375-14.725 6.891-21.129 6.891-4.385 0-7.787-1.178-10.109-3.499-4.238-4.238-4.6-12.894-.744-22.842 4.65 3.948 10.661 6.341 17.24 6.341 14.73 0 26.669-11.937 26.669-26.667C63.333 21.94 51.394 10 36.664 10 21.935 10 10 21.94 10 36.667a26.556 26.556 0 0 0 4.503 14.831c-6.061 13.212-6.206 25.895.951 33.05 8.542 8.541 24.962 6.695 40.764-3.242L61.436 90l4.714-4.714-2.08-6.24 16.22-12.617c5.523-5.521 7.818-13.223 7.073-21.214zm-39.557 8.063c-2.741-2.441-4.473-5.987-4.473-9.945 0-6.979 5.384-12.64 12.213-13.22a19.94 19.94 0 0 1 1.12 6.553c.001 6.924-3.515 13.022-8.86 16.612zM29.999 17.829v5.505a6.675 6.675 0 0 1-6.667 6.667h-5.503a20.013 20.013 0 0 1 12.17-12.172zm-6.667 18.838c7.362 0 13.333-5.97 13.333-13.333v-6.667c6.222 0 11.779 2.842 15.451 7.298-8.835 2.07-15.45 9.906-15.45 19.369 0 4.86 1.735 9.31 4.616 12.777a19.975 19.975 0 0 1-4.619.557c-11.045 0-19.997-8.952-19.997-20h6.666zm36.297 37.386-1.104-1.104 12.607-16.214c2.526-2.416 5.729-3.991 9.355-4.646-.654 3.626-2.229 6.829-4.646 9.355L59.629 74.053z"/></svg>